<svg clip-rule="evenodd" fill-rule="evenodd" height="512" image-rendering="optimizeQuality" shape-rendering="geometricPrecision" text-rendering="geometricPrecision" viewBox="0 0 6.82666 6.82666" width="512" xmlns="http://www.w3.org/2000/svg"><g id="Layer_x0020_1"><circle cx="3.413" cy="3.413" fill="#9c6" r="3.333"/><g id="_583737576" fill="#fefefe"><path id="_583737360" d="m2.45072 2.51674c-.00490945.0188425-.0140551.0539409.0958543.0938937.0462598.0168189.195504.082626.177638.22428-.00731496.0747953-.0707283.127976-.142028.147102v.0560512c0 .0276378-.0224055.0500472-.0500394.0500394-.0276339 0-.0500394-.0223937-.0500394-.0500315v-.0527874c-.0688583-.0152165-.136685-.070315-.135551-.187461.00027165-.0274724.022622-.0495472.0500315-.0495472.00016535-.00001181.00033465 0 .0005 0 .0276339.00026378.0498189.0228858.0495472.0505236-.00055906.0578307.023752.0883858.0722638.090815.0500827.00249213.102547-.029563.105752-.0647913l.00021654-.00196063c.00896457-.0684409-.0838307-.10776-.112492-.118181-.129736-.0471732-.183071-.11889-.158492-.213189.0223583-.0858071.0796732-.132512.140291-.14865v-.0550591c0-.0276378.0223976-.0500315.0500315-.0500315.0276378-.00000787.0500394.0223937.0500394.0500394v.055189c.084.0225157.138709.0971614.135417.18885-.00098819.0276142-.024437.0491417-.0518031.0482126-.0276142-.00099213-.0492047-.0241772-.0482126-.0518071.00211811-.0589606-.0379213-.0858465-.0728425-.0909646-.0379291-.00554331-.0884764.0119213-.106083.0794646zm.0874528-.32772c-.261303 0-.473894.212614-.473894.473913 0 .261291.212591.473894.473894.473894.261307-.00001181.473898-.212591.473898-.473894s-.212591-.473898-.473898-.473913z"/><path id="_583737720" d="m3.36329 2.0288c-.581626-.333504-1.12323-.333933-1.65412-.00131102v.0998661l.00000394.00042913-.00000394.00042913v2.53919h1.65412v-2.63861zm-.825118.0601654c.316492 0 .573965.257488.573965.573969 0 .316472-.257472.573972-.573965.573961-.316488 0-.573969-.257472-.573969-.573961 0-.316484.25748-.573969.573969-.573969zm-.535122 1.32818 1.06637-.00001181c.0276339 0 .0500354.0224094.0500354.0500433.00000394.0276339-.0224016.0500354-.0500354.0500354h-1.06637c-.0276339 0-.0500354-.0223898-.0500354-.0500354 0-.0276417.0224016-.0500315.0500354-.0500315zm0 .280315 1.06637-.00000787c.0276339 0 .0500354.0224055.0500354.0500394.00000394.0276339-.0224016.0500354-.0500354.0500354h-1.06637c-.0276339 0-.0500354-.0223937-.0500354-.0500354s.0224016-.0500315.0500354-.0500315zm0 .280315 1.06637-.00000787c.0276339 0 .0500354.0224094.0500354.0500472.00000394.0276299-.0224016.0500394-.0500354.0500315h-1.06637c-.0276339 0-.0500354-.0223976-.0500354-.0500315 0-.0276457.0224016-.0500394.0500354-.0500394zm0 .280323 1.06637-.00001181c.0276339 0 .0500354.0224055.0500354.0500512.00000394.027626-.0224016.0500315-.0500354.0500236h-1.06637c-.0276339 0-.0500354-.0223858-.0500354-.0500236 0-.0276535.0224016-.0500394.0500354-.0500394z"/><path id="_583737456" d="m3.46337 2.02883v2.63859l1.65413-.00001181v-2.53898l-.00000787-.00064173.00000787-.00064567v-.0996496c-.530898-.332634-1.07249-.332142-1.65413.00134252zm.293882.267039 1.06637-.00000787c.0276339 0 .0500315.0224094.0500315.0500472 0 .0276299-.0223976.0500354-.0500315.0500315h-1.06637c-.0276339 0-.0500394-.0223937-.0500394-.0500315 0-.0276457.0224055-.0500394.0500394-.0500394zm0 .280319 1.06637-.00000787c.0276339 0 .0500315.0224055.0500315.0500472 0 .0276299-.0223976.0500315-.0500315.0500315h-1.06637c-.0276339 0-.0500394-.0223976-.0500394-.0500315 0-.0276496.0224055-.0500394.0500394-.0500394zm0 .280315 1.06637-.00000394c.0276339 0 .0500315.0224055.0500315.0500433 0 .0276299-.0223976.0500394-.0500315.0500354h-1.06637c-.0276339 0-.0500394-.0224016-.0500394-.0500354 0-.0276457.0224055-.0500394.0500394-.0500394zm0 .280323 1.06637-.00001181c.0276339 0 .0500315.0224094.0500315.0500394 0 .0276378-.0223976.0500394-.0500315.0500394h-1.06637c-.0276339 0-.0500394-.0224016-.0500394-.0500394s.0224055-.0500276.0500394-.0500276zm0 .280315 1.06637-.00001181c.0276339 0 .0500315.0224094.0500315.0500433s-.0223976.0500354-.0500315.0500354h-1.06637c-.0276339 0-.0500394-.0223898-.0500394-.0500354 0-.0276417.0224055-.0500315.0500394-.0500315zm0 .280315 1.06637-.00000787c.0276339 0 .0500315.0224055.0500315.0500394s-.0223976.0500354-.0500315.0500354h-1.06637c-.0276339 0-.0500394-.0223937-.0500394-.0500354s.0224055-.0500315.0500394-.0500315zm0 .280315 1.06637-.00000787c.0276339 0 .0500315.0224094.0500315.0500472 0 .0276299-.0223976.0500394-.0500315.0500315h-1.06637c-.0276339 0-.0500394-.0223976-.0500394-.0500315 0-.0276457.0224055-.0500394.0500394-.0500394zm0 .280323 1.06637-.00001181c.0276339 0 .0500315.0224055.0500315.0500512 0 .027626-.0223976.0500315-.0500315.0500236h-1.06637c-.0276339 0-.0500394-.0223858-.0500394-.0500236 0-.0276535.0224055-.0500394.0500394-.0500394z"/><path id="_583737624" d="m5.21756 2.17783v2.53962c0 .027622-.0224016.0500472-.0500315.0500394h-1.7542-1.7542c-.0276339 0-.0500354-.0224016-.0500354-.0500354v-2.53963h-.280839v2.87048h4.17015v-2.87048h-.280843z"/></g></g></svg>